<svg width="397" height="110" viewBox="0 0 397 110" fill="none" xmlns="http://www.w3.org/2000/svg">
<path d="M49.9314 109.15H14.5552L49.9314 55.6547H85.3076L49.9314 109.15Z" fill="white"/>
<path d="M36.9881 0.433594H73.2271L36.9881 55.655H0.749023L36.9881 0.433594Z" fill="white"/>
<path d="M157.477 46.9716C157.477 50.2523 156.686 53.3279 155.104 56.1984C153.581 59.069 151.15 61.383 147.811 63.1405C144.53 64.898 140.371 65.7767 135.333 65.7767H125.051V89.3271H112.749V27.9908H135.333C140.078 27.9908 144.12 28.8109 147.459 30.4513C150.799 32.0916 153.288 34.347 154.929 37.2176C156.628 40.0881 157.477 43.3395 157.477 46.9716ZM134.805 55.8469C138.203 55.8469 140.722 55.0854 142.363 53.5622C144.003 51.9805 144.823 49.7836 144.823 46.9716C144.823 40.9962 141.484 38.0085 134.805 38.0085H125.051V55.8469H134.805Z" fill="white"/>
<path d="M174.999 48.2019C176.581 45.6242 178.631 43.6031 181.15 42.1385C183.728 40.674 186.657 39.9417 189.938 39.9417V52.8592H186.686C182.82 52.8592 179.891 53.7673 177.899 55.5833C175.966 57.3994 174.999 60.5629 174.999 65.0737V89.3271H162.697V40.6447H174.999V48.2019Z" fill="white"/>
<path d="M216.326 90.1179C211.639 90.1179 207.421 89.0927 203.672 87.0423C199.923 84.9333 196.964 81.9749 194.797 78.167C192.688 74.3591 191.633 69.9654 191.633 64.9859C191.633 60.0063 192.717 55.6126 194.885 51.8047C197.111 47.9968 200.128 45.0677 203.936 43.0173C207.744 40.9083 211.991 39.8538 216.678 39.8538C221.364 39.8538 225.611 40.9083 229.419 43.0173C233.227 45.0677 236.215 47.9968 238.383 51.8047C240.609 55.6126 241.722 60.0063 241.722 64.9859C241.722 69.9654 240.579 74.3591 238.295 78.167C236.068 81.9749 233.022 84.9333 229.156 87.0423C225.348 89.0927 221.071 90.1179 216.326 90.1179ZM216.326 79.3973C218.552 79.3973 220.632 78.87 222.565 77.8155C224.557 76.7024 226.139 75.0621 227.31 72.8946C228.482 70.727 229.068 68.0908 229.068 64.9859C229.068 60.3578 227.838 56.8136 225.377 54.3531C222.975 51.834 220.017 50.5745 216.502 50.5745C212.987 50.5745 210.028 51.834 207.627 54.3531C205.283 56.8136 204.112 60.3578 204.112 64.9859C204.112 69.6139 205.254 73.1875 207.539 75.7065C209.882 78.167 212.811 79.3973 216.326 79.3973Z" fill="white"/>
<path d="M259.533 79.573H272.745V89.3271H247.231V20.4336H259.533V79.573Z" fill="white"/>
<path d="M282.288 34.845C280.121 34.845 278.304 34.1713 276.84 32.8239C275.434 31.4179 274.731 29.6897 274.731 27.6393C274.731 25.5889 275.434 23.89 276.84 22.5426C278.304 21.1366 280.121 20.4336 282.288 20.4336C284.456 20.4336 286.242 21.1366 287.648 22.5426C289.113 23.89 289.845 25.5889 289.845 27.6393C289.845 29.6897 289.113 31.4179 287.648 32.8239C286.242 34.1713 284.456 34.845 282.288 34.845ZM288.351 40.6447V89.3271H276.049V40.6447H288.351Z" fill="white"/>
<path d="M323.969 39.9417C329.768 39.9417 334.455 41.7871 338.029 45.4778C341.602 49.1099 343.389 54.2066 343.389 60.7679V89.3271H331.086V62.4375C331.086 58.571 330.12 55.6126 328.187 53.5622C326.253 51.4532 323.617 50.3987 320.278 50.3987C316.88 50.3987 314.185 51.4532 312.193 53.5622C310.26 55.6126 309.294 58.571 309.294 62.4375V89.3271H296.991V40.6447H309.294V46.708C310.934 44.599 313.014 42.9587 315.533 41.7871C318.11 40.5568 320.922 39.9417 323.969 39.9417Z" fill="white"/>
<path d="M396.828 63.9314C396.828 65.6889 396.711 67.2706 396.477 68.6766H360.888C361.18 72.1916 362.411 74.945 364.578 76.9368C366.746 78.9286 369.411 79.9245 372.575 79.9245C377.144 79.9245 380.396 77.962 382.329 74.0369H395.598C394.192 78.7236 391.497 82.59 387.513 85.6363C383.53 88.6241 378.638 90.1179 372.838 90.1179C368.152 90.1179 363.934 89.0927 360.185 87.0423C356.494 84.9333 353.594 81.9749 351.485 78.167C349.435 74.3591 348.409 69.9654 348.409 64.9859C348.409 59.9477 349.435 55.5247 351.485 51.7169C353.535 47.909 356.406 44.9798 360.097 42.9294C363.787 40.879 368.035 39.8538 372.838 39.8538C377.466 39.8538 381.597 40.8497 385.229 42.8415C388.919 44.8334 391.761 47.6746 393.753 51.3653C395.803 54.9975 396.828 59.1862 396.828 63.9314ZM384.086 60.4164C384.028 57.2529 382.885 54.7339 380.659 52.8592C378.433 50.926 375.709 49.9594 372.487 49.9594C369.441 49.9594 366.863 50.8967 364.754 52.7713C362.704 54.5874 361.444 57.1358 360.975 60.4164H384.086Z" fill="white"/>
</svg>
