<svg width="344" height="95" viewBox="0 0 344 95" fill="none" xmlns="http://www.w3.org/2000/svg">
<path opacity="0.8" d="M50.5132 37.7354H75.2931L50.5132 0.263409H25.7334L50.5132 37.7354Z" fill="white"/>
<path opacity="0.9" d="M25.1352 37.7354H0.355373L25.1352 0.263409H49.915L25.1352 37.7354Z" fill="white"/>
<path opacity="0.6" d="M50.5166 75.208L50.5166 37.7361L75.2964 37.7361L75.2964 75.208L50.5166 75.208Z" fill="white"/>
<path d="M0.351563 75.208L0.351562 37.7361L25.1314 37.7361L25.1314 75.208L0.351563 75.208Z" fill="white"/>
<path d="M138.65 24.2637V75.2556H128.422V53.5585H106.579V75.2556H96.3516V24.2637H106.579V45.2303H128.422V24.2637H138.65Z" fill="white"/>
<path d="M163.766 75.9131C159.87 75.9131 156.363 75.0608 153.246 73.3562C150.129 71.6029 147.67 69.1434 145.868 65.9777C144.114 62.812 143.238 59.1593 143.238 55.0196C143.238 50.8798 144.139 47.2271 145.941 44.0614C147.791 40.8957 150.3 38.4606 153.465 36.756C156.631 35.0027 160.162 34.126 164.058 34.126C167.954 34.126 171.485 35.0027 174.651 36.756C177.817 38.4606 180.301 40.8957 182.103 44.0614C183.953 47.2271 184.879 50.8798 184.879 55.0196C184.879 59.1593 183.929 62.812 182.03 65.9777C180.179 69.1434 177.646 71.6029 174.432 73.3562C171.266 75.0608 167.711 75.9131 163.766 75.9131ZM163.766 67.0005C165.617 67.0005 167.346 66.5622 168.953 65.6855C170.609 64.7602 171.924 63.3965 172.898 61.5945C173.872 59.7925 174.359 57.6008 174.359 55.0196C174.359 51.172 173.336 48.2255 171.291 46.18C169.294 44.0858 166.834 43.0386 163.912 43.0386C160.99 43.0386 158.53 44.0858 156.534 46.18C154.585 48.2255 153.611 51.172 153.611 55.0196C153.611 58.8671 154.561 61.838 156.46 63.9322C158.409 65.9777 160.844 67.0005 163.766 67.0005Z" fill="white"/>
<path d="M239.72 34.1991C244.688 34.1991 248.682 35.7332 251.701 38.8015C254.769 41.8211 256.304 46.0582 256.304 51.513V75.2556H246.076V52.901C246.076 49.7353 245.272 47.3245 243.665 45.6686C242.058 43.964 239.866 43.1117 237.09 43.1117C234.314 43.1117 232.098 43.964 230.442 45.6686C228.835 47.3245 228.032 49.7353 228.032 52.901V75.2556H217.804V52.901C217.804 49.7353 217 47.3245 215.393 45.6686C213.786 43.964 211.594 43.1117 208.818 43.1117C205.993 43.1117 203.753 43.964 202.097 45.6686C200.49 47.3245 199.686 49.7353 199.686 52.901V75.2556H189.459V34.7835H199.686V39.6781C201.001 37.9735 202.682 36.6342 204.727 35.6602C206.821 34.6861 209.11 34.1991 211.594 34.1991C214.76 34.1991 217.585 34.8809 220.069 36.2446C222.552 37.5596 224.476 39.459 225.84 41.9428C227.155 39.6051 229.054 37.73 231.538 36.3176C234.071 34.9053 236.798 34.1991 239.72 34.1991Z" fill="white"/>
<path d="M300.71 54.1429C300.71 55.604 300.612 56.919 300.418 58.0879H270.831C271.074 61.01 272.097 63.2991 273.899 64.955C275.701 66.6109 277.917 67.4388 280.547 67.4388C284.346 67.4388 287.049 65.8073 288.656 62.5442H299.687C298.518 66.4404 296.278 69.6548 292.966 72.1874C289.654 74.6712 285.588 75.9131 280.766 75.9131C276.87 75.9131 273.363 75.0608 270.246 73.3562C267.178 71.6029 264.767 69.1434 263.014 65.9777C261.309 62.812 260.457 59.1593 260.457 55.0196C260.457 50.8311 261.309 47.154 263.014 43.9884C264.718 40.8227 267.105 38.3875 270.173 36.6829C273.241 34.9783 276.772 34.126 280.766 34.126C284.613 34.126 288.047 34.954 291.067 36.6099C294.135 38.2658 296.497 40.6279 298.153 43.6961C299.858 46.7157 300.71 50.198 300.71 54.1429ZM290.117 51.2207C290.068 48.5908 289.118 46.4966 287.268 44.9381C285.417 43.3309 283.152 42.5273 280.474 42.5273C277.941 42.5273 275.798 43.3065 274.045 44.865C272.34 46.3748 271.293 48.4934 270.904 51.2207H290.117Z" fill="white"/>
<path d="M343.972 34.7835L318.914 94.3959H308.029L316.795 74.2329L300.577 34.7835H312.047L322.494 63.0555L333.087 34.7835H343.972Z" fill="white"/>
</svg>
