<svg width="710" height="116" viewBox="0 0 710 116" fill="none" xmlns="http://www.w3.org/2000/svg">
<path d="M196.909 23.1818V93H181.091L155.864 56.3182H155.455V93H136.5V23.1818H152.591L177.409 59.7273H177.955V23.1818H196.909ZM236.039 93.9545C230.448 93.9545 225.63 92.8864 221.584 90.75C217.561 88.5909 214.459 85.5 212.277 81.4773C210.118 77.4318 209.039 72.5909 209.039 66.9545C209.039 61.5455 210.13 56.8182 212.311 52.7727C214.493 48.7273 217.573 45.5795 221.55 43.3295C225.527 41.0795 230.22 39.9545 235.63 39.9545C239.584 39.9545 243.164 40.5682 246.368 41.7955C249.573 43.0227 252.311 44.8068 254.584 47.1477C256.857 49.4659 258.607 52.2841 259.834 55.6023C261.061 58.9205 261.675 62.6591 261.675 66.8182V71.1818H214.902V60.8182H244.357C244.334 59.3182 243.948 58 243.198 56.8636C242.47 55.7045 241.482 54.8068 240.232 54.1705C239.005 53.5114 237.607 53.1818 236.039 53.1818C234.516 53.1818 233.118 53.5114 231.845 54.1705C230.573 54.8068 229.55 55.6932 228.777 56.8295C228.027 57.9659 227.63 59.2955 227.584 60.8182V72C227.584 73.6818 227.936 75.1818 228.641 76.5C229.345 77.8182 230.357 78.8523 231.675 79.6023C232.993 80.3523 234.584 80.7273 236.448 80.7273C237.743 80.7273 238.925 80.5455 239.993 80.1818C241.084 79.8182 242.016 79.2955 242.789 78.6136C243.561 77.9091 244.13 77.0682 244.493 76.0909H261.675C261.084 79.7273 259.686 82.8864 257.482 85.5682C255.277 88.2273 252.357 90.2955 248.72 91.7727C245.107 93.2273 240.88 93.9545 236.039 93.9545ZM289.819 40.6364L297.455 56.8636L305.501 40.6364H324.182L310.137 66.8182L324.864 93H306.319L297.455 76.3636L288.864 93H270.046L284.91 66.8182L271.001 40.6364H289.819ZM366.9 40.6364V54.2727H332.4V40.6364H366.9ZM339.082 28.0909H357.9V76.1591C357.9 76.8864 358.025 77.5 358.275 78C358.525 78.4773 358.911 78.8409 359.434 79.0909C359.957 79.3182 360.627 79.4318 361.445 79.4318C362.014 79.4318 362.673 79.3636 363.423 79.2273C364.195 79.0909 364.764 78.9773 365.127 78.8864L367.855 92.1136C367.014 92.3636 365.809 92.6705 364.241 93.0341C362.695 93.3977 360.855 93.6364 358.718 93.75C354.4 93.9773 350.775 93.5341 347.843 92.4205C344.911 91.2841 342.707 89.5 341.23 87.0682C339.752 84.6364 339.036 81.5909 339.082 77.9318V28.0909ZM416.743 45C416.561 42.7273 415.709 40.9545 414.186 39.6818C412.686 38.4091 410.402 37.7727 407.334 37.7727C405.379 37.7727 403.777 38.0114 402.527 38.4886C401.299 38.9432 400.39 39.5682 399.799 40.3636C399.209 41.1591 398.902 42.0682 398.879 43.0909C398.834 43.9318 398.981 44.6932 399.322 45.375C399.686 46.0341 400.254 46.6364 401.027 47.1818C401.799 47.7045 402.788 48.1818 403.993 48.6136C405.197 49.0455 406.629 49.4318 408.288 49.7727L414.015 51C417.879 51.8182 421.186 52.8977 423.936 54.2386C426.686 55.5795 428.936 57.1591 430.686 58.9773C432.436 60.7727 433.72 62.7955 434.538 65.0455C435.379 67.2955 435.811 69.75 435.834 72.4091C435.811 77 434.663 80.8864 432.39 84.0682C430.118 87.25 426.868 89.6705 422.64 91.3295C418.436 92.9886 413.379 93.8182 407.47 93.8182C401.402 93.8182 396.106 92.9205 391.584 91.125C387.084 89.3295 383.584 86.5682 381.084 82.8409C378.606 79.0909 377.356 74.2955 377.334 68.4545H395.334C395.447 70.5909 395.981 72.3864 396.936 73.8409C397.89 75.2955 399.231 76.3977 400.959 77.1477C402.709 77.8977 404.788 78.2727 407.197 78.2727C409.22 78.2727 410.913 78.0227 412.277 77.5227C413.64 77.0227 414.674 76.3295 415.379 75.4432C416.084 74.5568 416.447 73.5455 416.47 72.4091C416.447 71.3409 416.095 70.4091 415.413 69.6136C414.754 68.7955 413.663 68.0682 412.14 67.4318C410.618 66.7727 408.561 66.1591 405.97 65.5909L399.015 64.0909C392.834 62.75 387.959 60.5114 384.39 57.375C380.845 54.2159 379.084 49.9091 379.106 44.4545C379.084 40.0227 380.265 36.1477 382.652 32.8295C385.061 29.4886 388.39 26.8864 392.64 25.0227C396.913 23.1591 401.811 22.2273 407.334 22.2273C412.97 22.2273 417.845 23.1705 421.959 25.0568C426.072 26.9432 429.243 29.6023 431.47 33.0341C433.72 36.4432 434.856 40.4318 434.879 45H416.743ZM448.116 93V40.6364H466.935V93H448.116ZM457.526 35.1818C454.98 35.1818 452.798 34.3409 450.98 32.6591C449.162 30.9773 448.253 28.9545 448.253 26.5909C448.253 24.2273 449.162 22.2045 450.98 20.5227C452.798 18.8409 454.98 18 457.526 18C460.094 18 462.276 18.8409 464.071 20.5227C465.889 22.2045 466.798 24.2273 466.798 26.5909C466.798 28.9545 465.889 30.9773 464.071 32.6591C462.276 34.3409 460.094 35.1818 457.526 35.1818ZM500.277 93.6818C496.55 93.6818 493.118 92.7045 489.982 90.75C486.868 88.7955 484.368 85.8295 482.482 81.8523C480.618 77.875 479.686 72.8636 479.686 66.8182C479.686 60.5 480.664 55.3636 482.618 51.4091C484.595 47.4545 487.141 44.5568 490.255 42.7159C493.391 40.875 496.686 39.9545 500.141 39.9545C502.732 39.9545 505.005 40.4091 506.959 41.3182C508.914 42.2045 510.55 43.3977 511.868 44.8977C513.186 46.375 514.186 48 514.868 49.7727H515.141V23.1818H533.959V93H515.277V84.4091H514.868C514.141 86.1818 513.095 87.7727 511.732 89.1818C510.391 90.5682 508.755 91.6705 506.823 92.4886C504.914 93.2841 502.732 93.6818 500.277 93.6818ZM507.232 79.2273C508.959 79.2273 510.436 78.7273 511.664 77.7273C512.914 76.7045 513.868 75.2727 514.527 73.4318C515.209 71.5682 515.55 69.3636 515.55 66.8182C515.55 64.2273 515.209 62.0114 514.527 60.1705C513.868 58.3068 512.914 56.8864 511.664 55.9091C510.436 54.9091 508.959 54.4091 507.232 54.4091C505.505 54.4091 504.027 54.9091 502.8 55.9091C501.595 56.8864 500.664 58.3068 500.005 60.1705C499.368 62.0114 499.05 64.2273 499.05 66.8182C499.05 69.4091 499.368 71.6364 500.005 73.5C500.664 75.3409 501.595 76.7614 502.8 77.7614C504.027 78.7386 505.505 79.2273 507.232 79.2273ZM573.089 93.9545C567.498 93.9545 562.68 92.8864 558.634 90.75C554.611 88.5909 551.509 85.5 549.327 81.4773C547.168 77.4318 546.089 72.5909 546.089 66.9545C546.089 61.5455 547.18 56.8182 549.361 52.7727C551.543 48.7273 554.623 45.5795 558.6 43.3295C562.577 41.0795 567.27 39.9545 572.68 39.9545C576.634 39.9545 580.214 40.5682 583.418 41.7955C586.623 43.0227 589.361 44.8068 591.634 47.1477C593.907 49.4659 595.657 52.2841 596.884 55.6023C598.111 58.9205 598.725 62.6591 598.725 66.8182V71.1818H551.952V60.8182H581.407C581.384 59.3182 580.998 58 580.248 56.8636C579.52 55.7045 578.532 54.8068 577.282 54.1705C576.055 53.5114 574.657 53.1818 573.089 53.1818C571.566 53.1818 570.168 53.5114 568.895 54.1705C567.623 54.8068 566.6 55.6932 565.827 56.8295C565.077 57.9659 564.68 59.2955 564.634 60.8182V72C564.634 73.6818 564.986 75.1818 565.691 76.5C566.395 77.8182 567.407 78.8523 568.725 79.6023C570.043 80.3523 571.634 80.7273 573.498 80.7273C574.793 80.7273 575.975 80.5455 577.043 80.1818C578.134 79.8182 579.066 79.2955 579.839 78.6136C580.611 77.9091 581.18 77.0682 581.543 76.0909H598.725C598.134 79.7273 596.736 82.8864 594.532 85.5682C592.327 88.2273 589.407 90.2955 585.77 91.7727C582.157 93.2273 577.93 93.9545 573.089 93.9545ZM611.204 93V40.6364H629.477V50.5909H630.022C630.977 46.9091 632.488 44.2159 634.556 42.5114C636.647 40.8068 639.09 39.9545 641.886 39.9545C642.704 39.9545 643.511 40.0227 644.306 40.1591C645.124 40.2727 645.909 40.4432 646.659 40.6705V56.7273C645.727 56.4091 644.579 56.1705 643.215 56.0114C641.852 55.8523 640.681 55.7727 639.704 55.7727C637.863 55.7727 636.204 56.1932 634.727 57.0341C633.272 57.8523 632.124 59.0114 631.284 60.5114C630.443 61.9886 630.022 63.7273 630.022 65.7273V93H611.204ZM705.493 57.6818H688.174C688.084 56.6136 687.709 55.6932 687.049 54.9205C686.39 54.1477 685.538 53.5568 684.493 53.1477C683.47 52.7159 682.334 52.5 681.084 52.5C679.47 52.5 678.084 52.7955 676.924 53.3864C675.765 53.9773 675.197 54.8182 675.22 55.9091C675.197 56.6818 675.527 57.3977 676.209 58.0568C676.913 58.7159 678.265 59.2273 680.265 59.5909L690.902 61.5C696.265 62.4773 700.254 64.125 702.868 66.4432C705.504 68.7386 706.834 71.8182 706.856 75.6818C706.834 79.4091 705.72 82.6477 703.515 85.3977C701.334 88.125 698.345 90.2386 694.549 91.7386C690.777 93.2159 686.47 93.9545 681.629 93.9545C673.629 93.9545 667.368 92.3182 662.845 89.0455C658.345 85.7727 655.834 81.4545 655.311 76.0909H673.993C674.243 77.75 675.061 79.0341 676.447 79.9432C677.856 80.8295 679.629 81.2727 681.765 81.2727C683.493 81.2727 684.913 80.9773 686.027 80.3864C687.163 79.7955 687.743 78.9545 687.765 77.8636C687.743 76.8636 687.243 76.0682 686.265 75.4773C685.311 74.8864 683.811 74.4091 681.765 74.0455L672.493 72.4091C667.152 71.4773 663.152 69.7045 660.493 67.0909C657.834 64.4773 656.515 61.1136 656.538 57C656.515 53.3636 657.47 50.2841 659.402 47.7614C661.356 45.2159 664.14 43.2841 667.754 41.9659C671.39 40.625 675.697 39.9545 680.674 39.9545C688.243 39.9545 694.209 41.5227 698.572 44.6591C702.959 47.7955 705.265 52.1364 705.493 57.6818Z" fill="white"/>
<path fill-rule="evenodd" clip-rule="evenodd" d="M92 58C92 83.4051 71.4051 104 46 104C20.5949 104 0 83.4051 0 58C0 32.5949 20.5949 12 46 12C71.4051 12 92 32.5949 92 58ZM20 66.4202L54.4118 26L48.3269 50.5798L72.437 50.5798L38.0253 91L44.1101 66.4202H20Z" fill="#FFF73D"/>
</svg>
