<svg width="235" height="66" viewBox="0 0 235 66" fill="none" xmlns="http://www.w3.org/2000/svg">
<path d="M49.8501 10.7864C49.8501 16.3758 45.3191 20.9068 39.7297 20.9068C34.1404 20.9068 29.6093 16.3758 29.6093 10.7864C29.6093 5.19708 34.1404 0.666016 39.7297 0.666016C45.3191 0.666016 49.8501 5.19708 49.8501 10.7864Z" fill="white"/>
<path d="M34.2745 55.3325C15.8651 55.3325 0.941406 40.4088 0.941406 21.9994V5.99951C19.3508 5.99951 34.2753 20.9232 34.2753 39.3326L34.2745 55.3325Z" fill="white"/>
<path d="M70.9414 16.666C52.5321 16.666 37.6083 31.5898 37.6083 49.9991V65.999C56.0177 65.999 70.9414 51.0753 70.9414 32.6659V16.666Z" fill="white"/>
<path d="M132.576 10.6106V50.7426H124.527V24.6396L113.775 50.7426H107.681L96.8716 24.6396V50.7426H88.8223V10.6106H97.9641L110.728 40.4508L123.492 10.6106H132.576Z" fill="white"/>
<path d="M142.317 15.0953C140.899 15.0953 139.71 14.6545 138.752 13.7729C137.832 12.853 137.372 11.7222 137.372 10.3807C137.372 9.03909 137.832 7.92751 138.752 7.04591C139.71 6.12598 140.899 5.66602 142.317 5.66602C143.735 5.66602 144.904 6.12598 145.824 7.04591C146.782 7.92751 147.262 9.03909 147.262 10.3807C147.262 11.7222 146.782 12.853 145.824 13.7729C144.904 14.6545 143.735 15.0953 142.317 15.0953ZM146.284 18.89V50.7426H138.235V18.89H146.284Z" fill="white"/>
<path d="M169.588 18.43C173.383 18.43 176.449 19.6374 178.788 22.0523C181.126 24.4287 182.295 27.7635 182.295 32.0565V50.7426H174.245V33.1489C174.245 30.6191 173.613 28.6834 172.348 27.3419C171.083 25.962 169.358 25.272 167.173 25.272C164.95 25.272 163.187 25.962 161.884 27.3419C160.619 28.6834 159.987 30.6191 159.987 33.1489V50.7426H151.937V18.89H159.987V22.8572C161.06 21.4773 162.421 20.4041 164.069 19.6374C165.755 18.8325 167.595 18.43 169.588 18.43Z" fill="white"/>
<path d="M197.021 25.502V40.9108C197.021 41.9841 197.27 42.7698 197.769 43.2681C198.305 43.7281 199.187 43.9581 200.414 43.9581H204.151V50.7426H199.091C192.307 50.7426 188.914 47.4461 188.914 40.8533V25.502H182.941V18.89H188.914V11.0131H197.021V18.89V25.502Z" fill="white"/>
<path d="M234.33 18.89L214.609 65.8064H206.042L212.941 49.9376L200.177 18.89H209.204L217.426 41.1408L225.763 18.89H234.33Z" fill="white"/>
</svg>
