<svg width="315" height="83" viewBox="0 0 315 83" fill="none" xmlns="http://www.w3.org/2000/svg">
<path d="M80.4322 29.2702C82.7754 31.6133 82.7754 35.4123 80.4322 37.7555L37.8609 80.3267C35.5178 82.6699 31.7188 82.6699 29.3756 80.3267L2.58548 53.5366C0.242337 51.1934 0.24234 47.3944 2.58549 45.0513L45.1568 2.48001C47.4999 0.136867 51.2989 0.136872 53.6421 2.48002L80.4322 29.2702Z" fill="white"/>
<path d="M90.4321 37.7555C92.7752 35.4123 92.7752 31.6133 90.4321 29.2702L70.7333 9.57136L77.8246 2.48001C80.1678 0.136867 83.9667 0.136872 86.3099 2.48002L113.1 29.2702C115.443 31.6133 115.443 35.4123 113.1 37.7555L70.5288 80.3267C68.1856 82.6699 64.3866 82.6699 62.0435 80.3267L54.9521 73.2354L90.4321 37.7555Z" fill="white"/>
<path d="M160.078 44.3998C162.339 44.8215 164.198 45.9522 165.655 47.7921C167.111 49.6319 167.84 51.7401 167.84 54.1166C167.84 56.2631 167.303 58.1604 166.23 59.8087C165.195 61.4185 163.681 62.6834 161.688 63.6034C159.695 64.5233 157.337 64.9833 154.616 64.9833H137.31V24.8513H153.868C156.59 24.8513 158.928 25.2921 160.883 26.1737C162.876 27.0553 164.371 28.2819 165.367 29.8535C166.402 31.425 166.92 33.2074 166.92 35.2005C166.92 37.5387 166.287 39.4935 165.022 41.0651C163.796 42.6366 162.148 43.7482 160.078 44.3998ZM145.359 41.4101H152.718C154.635 41.4101 156.111 40.9884 157.146 40.1452C158.18 39.2636 158.698 38.0178 158.698 36.408C158.698 34.7981 158.18 33.5523 157.146 32.6707C156.111 31.7891 154.635 31.3483 152.718 31.3483H145.359V41.4101ZM153.466 58.4288C155.421 58.4288 156.935 57.9688 158.008 57.0489C159.12 56.1289 159.675 54.8257 159.675 53.1392C159.675 51.4143 159.1 50.0727 157.95 49.1145C156.801 48.1179 155.248 47.6196 153.293 47.6196H145.359V58.4288H153.466Z" fill="white"/>
<path d="M186.099 65.5007C183.033 65.5007 180.273 64.8299 177.82 63.4884C175.367 62.1085 173.431 60.1728 172.013 57.6813C170.633 55.1898 169.943 52.3151 169.943 49.057C169.943 45.7989 170.652 42.9241 172.07 40.4326C173.527 37.9412 175.501 36.0246 177.992 34.6831C180.484 33.3032 183.263 32.6132 186.329 32.6132C189.395 32.6132 192.174 33.3032 194.666 34.6831C197.157 36.0246 199.112 37.9412 200.53 40.4326C201.987 42.9241 202.715 45.7989 202.715 49.057C202.715 52.3151 201.968 55.1898 200.473 57.6813C199.016 60.1728 197.023 62.1085 194.493 63.4884C192.002 64.8299 189.204 65.5007 186.099 65.5007ZM186.099 58.4863C187.556 58.4863 188.916 58.1413 190.181 57.4513C191.484 56.7231 192.519 55.6498 193.286 54.2316C194.053 52.8134 194.436 51.0885 194.436 49.057C194.436 46.0289 193.631 43.7099 192.021 42.1C190.45 40.4518 188.514 39.6277 186.214 39.6277C183.914 39.6277 181.979 40.4518 180.407 42.1C178.874 43.7099 178.107 46.0289 178.107 49.057C178.107 52.0851 178.855 54.4232 180.35 56.0714C181.883 57.6813 183.799 58.4863 186.099 58.4863Z" fill="white"/>
<path d="M214.369 38.0753C215.404 36.3888 216.746 35.0664 218.394 34.1081C220.081 33.1499 221.997 32.6707 224.144 32.6707V41.1226H222.016C219.486 41.1226 217.57 41.7167 216.267 42.905C215.002 44.0932 214.369 46.163 214.369 49.1145V64.9833H206.32V33.1307H214.369V38.0753Z" fill="white"/>
<path d="M225.196 48.942C225.196 45.7222 225.828 42.8666 227.093 40.3751C228.396 37.8837 230.159 35.9671 232.383 34.6256C234.606 33.284 237.078 32.6132 239.799 32.6132C241.869 32.6132 243.843 33.0732 245.722 33.9931C247.6 34.8747 249.095 36.063 250.206 37.5579V22.4365H258.371V64.9833H250.206V60.2686C249.21 61.8402 247.811 63.1051 246.009 64.0633C244.207 65.0216 242.118 65.5007 239.742 65.5007C237.059 65.5007 234.606 64.8108 232.383 63.4309C230.159 62.051 228.396 60.1153 227.093 57.6238C225.828 55.094 225.196 52.2001 225.196 48.942ZM250.264 49.057C250.264 47.1021 249.88 45.4348 249.114 44.0549C248.347 42.6366 247.312 41.5634 246.009 40.8351C244.706 40.0685 243.307 39.6852 241.812 39.6852C240.317 39.6852 238.937 40.0493 237.672 40.7776C236.407 41.5059 235.372 42.5791 234.567 43.9974C233.801 45.3773 233.417 47.0255 233.417 48.942C233.417 50.8585 233.801 52.545 234.567 54.0016C235.372 55.4198 236.407 56.5122 237.672 57.2788C238.975 58.0455 240.355 58.4288 241.812 58.4288C243.307 58.4288 244.706 58.0646 246.009 57.3363C247.312 56.5697 248.347 55.4965 249.114 54.1166C249.88 52.6984 250.264 51.0118 250.264 49.057Z" fill="white"/>
<path d="M293.543 48.367C293.543 49.5169 293.466 50.5519 293.313 51.4718H270.027C270.219 53.7716 271.023 55.5731 272.442 56.8764C273.86 58.1796 275.604 58.8312 277.674 58.8312C280.664 58.8312 282.791 57.5472 284.056 54.979H292.738C291.818 58.0455 290.055 60.5753 287.448 62.5684C284.842 64.5233 281.641 65.5007 277.846 65.5007C274.78 65.5007 272.02 64.8299 269.567 63.4884C267.152 62.1085 265.255 60.1728 263.875 57.6813C262.533 55.1898 261.863 52.3151 261.863 49.057C261.863 45.7606 262.533 42.8666 263.875 40.3751C265.216 37.8837 267.095 35.9671 269.509 34.6256C271.924 33.284 274.703 32.6132 277.846 32.6132C280.874 32.6132 283.577 33.2649 285.953 34.5681C288.368 35.8713 290.227 37.7303 291.53 40.1452C292.872 42.5216 293.543 45.2623 293.543 48.367ZM285.206 46.0672C285.167 43.9974 284.42 42.3492 282.963 41.1226C281.507 39.8577 279.724 39.2252 277.616 39.2252C275.623 39.2252 273.937 39.8385 272.557 41.0651C271.215 42.2533 270.391 43.9207 270.084 46.0672H285.206Z" fill="white"/>
<path d="M305.167 38.0753C306.202 36.3888 307.544 35.0664 309.192 34.1081C310.879 33.1499 312.795 32.6707 314.942 32.6707V41.1226H312.814C310.285 41.1226 308.368 41.7167 307.065 42.905C305.8 44.0932 305.167 46.163 305.167 49.1145V64.9833H297.118V33.1307H305.167V38.0753Z" fill="white"/>
</svg>
